<?xml version="1.0" encoding="UTF-8" standalone="no" ?>
<!DOCTYPE svg PUBLIC "-//W3C//DTD SVG 1.1//EN" "http://www.w3.org/Graphics/SVG/1.1/DTD/svg11.dtd">
<svg xmlns="http://www.w3.org/2000/svg" xmlns:xlink="http://www.w3.org/1999/xlink" version="1.1" width="500" height="500" viewBox="0 0 500 500" xml:space="preserve">
<desc>Created with Fabric.js 3.6.3</desc>
<defs>
</defs>
<rect x="0" y="0" width="100%" height="100%" fill="inherit"></rect>
<g transform="matrix(1 0 0 1 250.5 318.8917354659566)" style=""  ><path fill="#ffffff" opacity="1" d="M-182.87 27.97L-182.87-30.89L-193.55-30.89L-193.55 27.97L-197.12 27.97L-197.12-34.36L-179.31-34.36L-179.31 27.97L-182.87 27.97Z"/><path fill="#ffffff" opacity="1" d="M-138.16 27.97L-139.86 16.31L-151.34 16.31L-152.95 27.97L-156.60 27.97L-147.34-34.45L-143.77-34.45L-134.51 27.97L-138.16 27.97ZM-148.23-5.15L-150.81 12.92L-140.30 12.92L-142.88-5.15L-145.56-26.08L-148.23-5.15Z"/><path fill="#ffffff" opacity="1" d="M-94.17 10.16L-94.17 19.07Q-94.17 23.88-96.26 26.37Q-98.36 28.87-103.08 28.87L-103.08 28.87Q-107.80 28.87-109.89 26.37Q-111.98 23.88-111.98 19.07L-111.98 19.07L-111.98-25.55Q-111.98-30.35-109.89-32.80Q-107.80-35.25-103.08-35.25L-103.08-35.25Q-98.36-35.25-96.26-32.80Q-94.17-30.35-94.17-25.55L-94.17-25.55L-94.17-16.55L-97.73-16.55L-97.73-25.55Q-97.73-28.66-98.98-30.27Q-100.23-31.87-103.08-31.87L-103.08-31.87Q-105.93-31.87-107.17-30.27Q-108.42-28.66-108.42-25.55L-108.42-25.55L-108.42 19.07Q-108.42 22.19-107.17 23.83Q-105.93 25.48-103.08 25.48L-103.08 25.48Q-100.23 25.48-98.98 23.83Q-97.73 22.19-97.73 19.07L-97.73 19.07L-97.73 10.16L-94.17 10.16Z"/><path fill="#ffffff" opacity="1" d="M-54.63 27.97L-56.33 16.31L-67.81 16.31L-69.42 27.97L-73.07 27.97L-63.81-34.45L-60.24-34.45L-50.98 27.97L-54.63 27.97ZM-64.70-5.15L-67.28 12.92L-56.77 12.92L-59.35-5.15L-62.02-26.08L-64.70-5.15Z"/><path fill="#ffffff" opacity="1" d="M-22.93-23.05L-21.86-12.19Q-21.51-8.71-20.53-6.80Q-19.55-4.89-16.96-4.89L-16.96-4.89L-16.07-4.89L-16.07-34.36L-12.51-34.36L-12.51-4.89L-11.62-4.89Q-9.04-4.89-8.06-6.80Q-7.08-8.71-6.72-12.19L-6.72-12.19L-5.65-23.05Q-5.39-25.81-4.90-27.99Q-4.41-30.18-3.52-31.65Q-2.63-33.11-1.25-33.87Q0.13-34.63 2.18-34.63L2.18-34.63L2.18-31.24Q-0.13-31.24-0.89-29.11Q-1.65-26.97-2.09-23.05L-2.09-23.05L-3.16-12.19Q-3.52-8.80-4.45-6.53Q-5.39-4.26-7.44-3.19L-7.44-3.19Q-5.12-2.21-4.10 0.06Q-3.07 2.33-2.72 5.71L-2.72 5.71L-1.65 16.67Q-1.20 20.58-0.45 22.72Q0.31 24.86 2.63 24.86L2.63 24.86L2.63 28.24Q0.58 28.24-0.80 27.48Q-2.18 26.73-3.07 25.26Q-3.96 23.79-4.45 21.61Q-4.94 19.43-5.21 16.67L-5.21 16.67L-6.28 5.71Q-6.63 2.24-7.70 0.37Q-8.77-1.50-11.62-1.50L-11.62-1.50L-12.51-1.50L-12.51 27.97L-16.07 27.97L-16.07-1.50L-16.96-1.50Q-19.81-1.50-20.88 0.37Q-21.95 2.24-22.31 5.71L-22.31 5.71L-23.38 16.67Q-23.91 22.19-25.51 25.21Q-27.12 28.24-31.21 28.24L-31.21 28.24L-31.21 24.86Q-28.90 24.86-28.14 22.72Q-27.38 20.58-26.94 16.67L-26.94 16.67L-25.87 5.71Q-25.51 2.33-24.49 0.06Q-23.47-2.21-21.15-3.19L-21.15-3.19Q-23.20-4.26-24.13-6.53Q-25.07-8.80-25.42-12.19L-25.42-12.19L-26.49-23.05Q-26.94-26.97-27.70-29.11Q-28.45-31.24-30.77-31.24L-30.77-31.24L-30.77-34.63Q-26.67-34.63-25.07-31.60Q-23.47-28.57-22.93-23.05L-22.93-23.05Z"/><path fill="#ffffff" opacity="1" d=""/><path fill="#ffffff" opacity="1" d="M72.00 27.97L70.31 16.31L58.82 16.31L57.22 27.97L53.56 27.97L62.83-34.45L66.39-34.45L75.65 27.97L72.00 27.97ZM61.94-5.15L59.35 12.92L69.86 12.92L67.28-5.15L64.61-26.08L61.94-5.15Z"/><path fill="#ffffff" opacity="1" d="M98.36-34.36L107.26-34.36Q111.54-34.36 113.41-32.09Q115.28-29.82 115.28-25.55L115.28-25.55L115.28-10.41Q115.28-4.97 111.72-3.19L111.72-3.19Q116.17-1.41 116.17 4.82L116.17 4.82L116.17 18.18Q116.17 22.99 114.08 25.48Q111.98 27.97 107.26 27.97L107.26 27.97L98.36 27.97L98.36-34.36ZM107.26-1.50L101.92-1.50L101.92 24.59L107.26 24.59Q110.11 24.59 111.36 22.94Q112.61 21.30 112.61 18.18L112.61 18.18L112.61 4.82Q112.61 1.70 111.36 0.10Q110.11-1.50 107.26-1.50L107.26-1.50ZM107.26-30.98L101.92-30.98L101.92-4.89L107.26-4.89Q111.72-4.89 111.72-10.41L111.72-10.41L111.72-25.55Q111.72-30.98 107.26-30.98L107.26-30.98Z"/><path fill="#ffffff" opacity="1" d="M137.99-30.89L137.99-34.36L157.58-34.36L157.58-30.89L149.56-30.89L149.56 27.97L146.00 27.97L146.00-30.89L137.99-30.89Z"/><path fill="#ffffff" opacity="1" d="M179.48 19.07L179.48-25.55Q179.48-30.35 181.58-32.80Q183.67-35.25 188.39-35.25L188.39-35.25Q193.11-35.25 195.20-32.80Q197.29-30.35 197.29-25.55L197.29-25.55L197.29 19.07Q197.29 23.88 195.20 26.37Q193.11 28.87 188.39 28.87L188.39 28.87Q183.67 28.87 181.58 26.37Q179.48 23.88 179.48 19.07L179.48 19.07ZM183.05-25.55L183.05 19.07Q183.05 22.19 184.29 23.83Q185.54 25.48 188.39 25.48L188.39 25.48Q191.24 25.48 192.49 23.83Q193.73 22.19 193.73 19.07L193.73 19.07L193.73-25.55Q193.73-28.66 192.49-30.27Q191.24-31.87 188.39-31.87L188.39-31.87Q185.54-31.87 184.29-30.27Q183.05-28.66 183.05-25.55L183.05-25.55Z"/></g><g transform="matrix(1.11 0 0 1.11 251.38154899999998 206.731549)"  >
<circle style="stroke: none; stroke-width: 1; stroke-dasharray: none; stroke-linecap: butt; stroke-dashoffset: 0; stroke-linejoin: miter; stroke-miterlimit: 4; fill: rgb(255,255,255); fill-rule: evenodd; opacity: 1;"  cx="0" cy="0" r="47.0059" />
</g>
<g transform="matrix(1 0 0 1 165.93500000000006 242.729)" style=""  ><path fill="#ffffff" opacity="1" d="M-8.03 3.96L-8.03 2.19L-13.75 2.19L-13.75 0.44L-8.47 0.44L-8.47-1.32L-13.75-1.32L-13.75-3.10L-8.03-3.10L-8.03-4.86L-15.51-4.86L-15.51 3.96Z"/><path fill="#ffffff" opacity="1" d="M2.67 3.96L3.54 3.09L3.54-0.45L2.67-1.33L-2.61-1.33L-2.61-3.10L1.78-3.10L1.78-2.22L3.54-2.22L3.54-3.97L2.67-4.86L-3.51-4.86L-4.38-3.97L-4.38-0.19L-3.51 0.44L1.78 0.44L1.78 2.19L-2.61 2.19L-2.61 1.32L-4.38 1.32L-4.38 3.09L-3.51 3.96Z"/><path fill="#ffffff" opacity="1" d="M11.79 3.96L11.79-3.10L14.85-3.10L14.85-4.86L6.94-4.86L6.94-3.10L10.03-3.10L10.03 3.96Z"/><path fill="#ffffff" opacity="1" d="M16.24 3.96L18.00 3.96L18.00 2.19L16.24 2.19Z"/></g><g transform="matrix(1 0 0 1 338.87000000000006 242.729)" style=""  ><path fill="#ffffff" opacity="1" d="M-18.67 3.96L-18.67-4.86L-22.19-4.86L-22.19-3.10L-20.42-3.10L-20.42 3.96Z"/><path fill="#ffffff" opacity="1" d="M-14.89-0.44L-14.02 0.44L-8.73 0.44L-8.73 2.19L-13.13 2.19L-13.13 1.32L-14.89 1.32L-14.89 3.09L-14.02 3.96L-7.85 3.96L-6.98 3.09L-6.98-3.97L-7.85-4.86L-14.02-4.86L-14.89-3.97ZM-13.13-1.32L-13.13-3.10L-8.73-3.10L-8.73-1.32Z"/><path fill="#ffffff" opacity="1" d="M-3.20-0.44L-2.33 0.44L2.96 0.44L2.96 2.19L-1.44 2.19L-1.44 1.32L-3.20 1.32L-3.20 3.09L-2.33 3.96L3.84 3.96L4.71 3.09L4.71-3.97L3.84-4.86L-2.33-4.86L-3.20-3.97ZM-1.44-1.32L-1.44-3.10L2.96-3.10L2.96-1.32Z"/><path fill="#ffffff" opacity="1" d="M10.26 2.19L10.26 0.44L14.65 0.44L14.65 2.19ZM10.26-1.32L10.26-3.10L14.65-3.10L14.65-1.32ZM15.54 3.96L16.41 3.09L16.41 0.44L15.54-0.44L16.41-1.32L16.41-3.97L15.54-4.86L9.36-4.86L8.49-3.97L8.49-1.32L9.36-0.44L8.49 0.44L8.49 3.09L9.36 3.96Z"/></g><g transform="matrix(0.6375174 0 0 0.6375174 250.58587000000003 206.49125)"  >
<g style=""   >
		<g transform="matrix(1 0 0 1 0.5001605685865158 3.796999999999997)"  >
<path style="stroke: none; stroke-width: 1; stroke-dasharray: none; stroke-linecap: butt; stroke-dashoffset: 0; stroke-linejoin: miter; stroke-miterlimit: 4; fill: rgb(38,38,38); fill-rule: nonzero; opacity: 1;"  transform=" translate(-50.000160568586516, -53.297)" d="M 97.899 54.778 c -0.033 -0.167 -0.067 -0.584 -0.114 -1.112 c -0.102 -1.189 -0.254 -2.986 -0.584 -4.635 c -0.42 -2.101 -1.324 -2.625 -1.606 -2.739 c -0.008 -0.264 -0.117 -0.932 -0.434 -2.683 c -0.929 -5.146 -3.024 -5.579 -5.451 -6.082 c -0.195 -0.04 -0.393 -0.081 -0.592 -0.124 c -2.361 -0.519 -4.498 -0.71 -4.969 -0.748 c -0.001 -0.163 0.021 -0.518 0.203 -0.81 c 0.129 -0.205 0.798 -0.275 1.445 -0.345 c 0.539 -0.058 1.096 -0.116 1.555 -0.253 c 1.169 -0.352 1.207 -0.987 1.258 -1.87 c 0.05 -0.841 0.097 -1.634 -1.045 -1.935 c -1.194 -0.315 -3.541 -0.62 -4.762 0.229 c -0.941 0.656 -0.938 2.811 -0.864 3.949 c -0.809 -1.947 -3.259 -7.689 -5.107 -10.419 c -2.144 -3.163 -3.606 -3.404 -5.633 -3.738 c -0.13 -0.022 -0.264 -0.043 -0.398 -0.066 C 68.679 21.035 57.475 20.27 50 20.27 c 0 0 0 0 -0.001 0 c -7.475 0 -18.678 0.766 -20.799 1.129 c -0.136 0.023 -0.27 0.044 -0.4 0.066 c -2.025 0.334 -3.489 0.575 -5.633 3.738 c -1.85 2.729 -4.298 8.472 -5.108 10.419 c 0.076 -1.139 0.08 -3.293 -0.863 -3.949 c -1.221 -0.85 -3.566 -0.545 -4.761 -0.229 c -1.143 0.301 -1.096 1.094 -1.046 1.935 c 0.052 0.883 0.09 1.519 1.259 1.87 c 0.458 0.137 1.016 0.195 1.554 0.253 c 0.648 0.069 1.317 0.14 1.447 0.345 c 0.182 0.292 0.203 0.646 0.202 0.81 c -0.471 0.038 -2.608 0.229 -4.969 0.748 c -0.199 0.043 -0.396 0.084 -0.593 0.124 c -2.425 0.503 -4.521 0.937 -5.449 6.082 c -0.316 1.751 -0.426 2.419 -0.435 2.683 c -0.282 0.114 -1.186 0.639 -1.606 2.739 c -0.33 1.648 -0.483 3.445 -0.584 4.635 c -0.046 0.528 -0.081 0.945 -0.114 1.112 c -0.049 0.24 -1.543 28.133 1.002 31.237 c 0.166 0.202 0.354 0.307 0.554 0.307 h 13.479 c 0.789 0 1.113 -2.173 1.549 -5.751 c 0.069 -0.564 0.138 -1.125 0.209 -1.655 c 1.024 0.045 9.678 0.432 10.527 0.53 c 0.129 0.016 0.259 0.068 0.454 0.149 c 1.124 0.459 4.109 1.678 20.125 1.678 c 0.001 0 0.001 0 0.001 0 c 16.016 0 19.002 -1.219 20.125 -1.678 c 0.198 -0.081 0.326 -0.134 0.455 -0.149 c 0.849 -0.099 9.504 -0.485 10.526 -0.53 c 0.071 0.53 0.14 1.091 0.21 1.655 c 0.437 3.578 0.76 5.751 1.549 5.751 h 13.479 c 0.201 0 0.388 -0.104 0.554 -0.307 C 99.442 82.911 97.948 55.019 97.899 54.778 z M 86.75 43.396 c 0.68 0 1.646 0.215 1.646 1.469 c 0 1.252 0.036 2.004 0 3.078 c -0.035 1.073 -0.25 2.017 -1.646 2.047 c -1.396 0.03 -9.417 -0.15 -10.705 -0.15 c -1.289 0 -2.435 -0.429 -2.47 -1.896 c -0.036 -1.468 0.042 -2.398 0.006 -3.615 c -0.035 -1.218 1.391 -1.183 2.214 -1.183 s 4.868 0 4.868 0 C 82.597 43.146 86.069 43.396 86.75 43.396 z M 83.832 57.135 c 0 2.121 -1.72 3.84 -3.839 3.84 c -2.122 0 -3.842 -1.719 -3.842 -3.84 c 0 -2.12 1.72 -3.839 3.842 -3.839 C 82.112 53.296 83.832 55.015 83.832 57.135 z M 11.604 44.865 c 0 -1.254 0.966 -1.469 1.647 -1.469 c 0.679 0 4.152 -0.251 6.085 -0.251 c 0 0 4.047 0 4.868 0 c 0.823 0 2.25 -0.035 2.215 1.183 c -0.036 1.217 0.042 2.147 0.006 3.615 c -0.035 1.468 -1.181 1.896 -2.471 1.896 c -1.288 0 -9.309 0.181 -10.703 0.15 c -1.398 -0.03 -1.612 -0.974 -1.647 -2.047 C 11.567 46.869 11.604 46.117 11.604 44.865 z M 23.848 57.135 c 0 2.121 -1.72 3.84 -3.839 3.84 c -2.121 0 -3.84 -1.719 -3.84 -3.84 c 0 -2.12 1.719 -3.839 3.84 -3.839 C 22.128 53.296 23.848 55.015 23.848 57.135 z M 26.03 76.727 c -1.145 0 -13.413 -0.723 -17.771 -0.863 c -1.078 -0.034 -1.507 -0.237 -1.596 -0.897 c -0.045 -0.33 -0.287 -3.788 0.035 -4.719 s 1.181 -1.017 2.739 -0.992 c 1.574 0.026 15.608 0.23 15.608 0.23 c 0.324 0.019 1.987 -0.132 2.023 0.94 c 0.036 1.074 0.21 4.435 0.241 5.046 C 27.344 76.082 27.177 76.727 26.03 76.727 z M 68.778 72.252 c -0.538 3.114 -1.541 3.473 -2.973 3.473 c -1.031 0 -1.031 0 -15.806 0 h -0.001 c -0.009 0 -14.374 0 -15.806 0 s -2.435 -0.358 -2.972 -3.473 c -0.537 -3.115 -1.145 -3.867 1.54 -3.867 c 2.286 0 13.178 0 16.361 0 c 0 0 0.321 0 0.877 0 c 3.305 0 14.939 0 17.237 0 C 69.923 68.385 69.314 69.137 68.778 72.252 z M 70.388 59.83 c 0 2.183 -1.181 2.541 -1.896 2.541 c -0.717 0 -18.482 0 -18.491 0 h -0.001 c -0.009 0 -17.774 0 -18.49 0 c -0.717 0 -1.897 -0.358 -1.897 -2.541 c 0 -2.185 0 -20.944 0 -20.944 s -0.036 -0.823 7.16 -2.113 c 7.196 -1.287 11.42 -1.61 11.42 -1.61 l 1.808 -1.646 H 50 l 1.808 1.646 c 0 0 4.225 0.323 11.421 1.61 c 7.196 1.29 7.159 2.113 7.159 2.113 S 70.388 57.646 70.388 59.83 z M 49.999 32.298 c -10.757 0 -29.41 2.899 -29.41 2.899 s 3.08 -7.338 4.011 -9.093 c 0.931 -1.754 2.505 -2.802 3.687 -2.972 C 30.97 22.749 44.315 21.844 50 21.844 c 5.684 0 19.043 0.831 21.714 1.289 c 1.609 0.277 2.755 1.218 3.687 2.972 c 0.931 1.755 4.01 9.093 4.01 9.093 S 60.759 32.298 49.999 32.298 z M 93.326 74.967 c -0.09 0.661 -0.52 0.864 -1.597 0.898 c -4.357 0.14 -16.625 0.863 -17.771 0.863 c -1.146 0 -1.311 -0.645 -1.28 -1.255 c 0.03 -0.611 0.206 -3.972 0.241 -5.046 c 0.036 -1.073 1.7 -0.922 2.024 -0.94 c 0 0 14.034 -0.204 15.608 -0.23 c 1.56 -0.024 2.417 0.062 2.738 0.992 C 93.612 71.18 93.37 74.638 93.326 74.967 z" stroke-linecap="round" />
</g>
		<g transform="matrix(1 0 0 1 -16.6335 0.6759999999999984)"  >
<path style="stroke: none; stroke-width: 1; stroke-dasharray: none; stroke-linecap: butt; stroke-dashoffset: 0; stroke-linejoin: miter; stroke-miterlimit: 4; fill: rgb(38,38,38); fill-rule: nonzero; opacity: 1;"  transform=" translate(-32.8665, -50.176)" d="M 32.867 39.377 c -0.374 0 -0.677 0.303 -0.677 0.676 v 20.246 c 0 0.373 0.303 0.676 0.677 0.676 s 0.676 -0.303 0.676 -0.676 V 40.053 C 33.543 39.68 33.241 39.377 32.867 39.377 z" stroke-linecap="round" />
</g>
		<g transform="matrix(1 0 0 1 -13.765500000000007 0.6759999999999984)"  >
<path style="stroke: none; stroke-width: 1; stroke-dasharray: none; stroke-linecap: butt; stroke-dashoffset: 0; stroke-linejoin: miter; stroke-miterlimit: 4; fill: rgb(38,38,38); fill-rule: nonzero; opacity: 1;"  transform=" translate(-35.7345, -50.176)" d="M 35.735 39.377 c -0.374 0 -0.677 0.303 -0.677 0.676 v 20.246 c 0 0.373 0.303 0.676 0.677 0.676 c 0.373 0 0.676 -0.303 0.676 -0.676 V 40.053 C 36.411 39.68 36.108 39.377 35.735 39.377 z" stroke-linecap="round" />
</g>
		<g transform="matrix(1 0 0 1 -10.896500000000007 0.6759999999999984)"  >
<path style="stroke: none; stroke-width: 1; stroke-dasharray: none; stroke-linecap: butt; stroke-dashoffset: 0; stroke-linejoin: miter; stroke-miterlimit: 4; fill: rgb(38,38,38); fill-rule: nonzero; opacity: 1;"  transform=" translate(-38.6035, -50.176)" d="M 38.603 39.377 c -0.373 0 -0.676 0.303 -0.676 0.676 v 20.246 c 0 0.373 0.303 0.676 0.676 0.676 c 0.374 0 0.677 -0.303 0.677 -0.676 V 40.053 C 39.279 39.68 38.977 39.377 38.603 39.377 z" stroke-linecap="round" />
</g>
		<g transform="matrix(1 0 0 1 -8.028500000000012 0.6759999999999984)"  >
<path style="stroke: none; stroke-width: 1; stroke-dasharray: none; stroke-linecap: butt; stroke-dashoffset: 0; stroke-linejoin: miter; stroke-miterlimit: 4; fill: rgb(38,38,38); fill-rule: nonzero; opacity: 1;"  transform=" translate(-41.47149999999999, -50.176)" d="M 41.471 39.377 c -0.373 0 -0.676 0.303 -0.676 0.676 v 20.246 c 0 0.373 0.303 0.676 0.676 0.676 c 0.374 0 0.677 -0.303 0.677 -0.676 V 40.053 C 42.147 39.68 41.845 39.377 41.471 39.377 z" stroke-linecap="round" />
</g>
		<g transform="matrix(1 0 0 1 -5.1605000000000025 0.6759999999999984)"  >
<path style="stroke: none; stroke-width: 1; stroke-dasharray: none; stroke-linecap: butt; stroke-dashoffset: 0; stroke-linejoin: miter; stroke-miterlimit: 4; fill: rgb(38,38,38); fill-rule: nonzero; opacity: 1;"  transform=" translate(-44.3395, -50.176)" d="M 44.339 39.377 c -0.373 0 -0.676 0.303 -0.676 0.676 v 20.246 c 0 0.373 0.303 0.676 0.676 0.676 c 0.374 0 0.677 -0.303 0.677 -0.676 V 40.053 C 45.016 39.68 44.713 39.377 44.339 39.377 z" stroke-linecap="round" />
</g>
		<g transform="matrix(1 0 0 1 -2.2929999999999993 0.6759999999999984)"  >
<path style="stroke: none; stroke-width: 1; stroke-dasharray: none; stroke-linecap: butt; stroke-dashoffset: 0; stroke-linejoin: miter; stroke-miterlimit: 4; fill: rgb(38,38,38); fill-rule: nonzero; opacity: 1;"  transform=" translate(-47.207, -50.176)" d="M 47.207 39.377 c -0.374 0 -0.676 0.303 -0.676 0.676 v 20.246 c 0 0.373 0.302 0.676 0.676 0.676 s 0.676 -0.303 0.676 -0.676 V 40.053 C 47.883 39.68 47.581 39.377 47.207 39.377 z" stroke-linecap="round" />
</g>
		<g transform="matrix(1 0 0 1 0.5744999999999969 0.6759999999999984)"  >
<path style="stroke: none; stroke-width: 1; stroke-dasharray: none; stroke-linecap: butt; stroke-dashoffset: 0; stroke-linejoin: miter; stroke-miterlimit: 4; fill: rgb(38,38,38); fill-rule: nonzero; opacity: 1;"  transform=" translate(-50.0745, -50.176)" d="M 50.075 39.377 c -0.374 0 -0.677 0.303 -0.677 0.676 v 20.246 c 0 0.373 0.303 0.676 0.677 0.676 c 0.373 0 0.676 -0.303 0.676 -0.676 V 40.053 C 50.751 39.68 50.448 39.377 50.075 39.377 z" stroke-linecap="round" />
</g>
		<g transform="matrix(1 0 0 1 3.442499999999992 0.6759999999999984)"  >
<path style="stroke: none; stroke-width: 1; stroke-dasharray: none; stroke-linecap: butt; stroke-dashoffset: 0; stroke-linejoin: miter; stroke-miterlimit: 4; fill: rgb(38,38,38); fill-rule: nonzero; opacity: 1;"  transform=" translate(-52.942499999999995, -50.176)" d="M 52.943 39.377 c -0.374 0 -0.677 0.303 -0.677 0.676 v 20.246 c 0 0.373 0.303 0.676 0.677 0.676 c 0.373 0 0.676 -0.303 0.676 -0.676 V 40.053 C 53.619 39.68 53.316 39.377 52.943 39.377 z" stroke-linecap="round" />
</g>
		<g transform="matrix(1 0 0 1 6.311499999999992 0.6759999999999984)"  >
<path style="stroke: none; stroke-width: 1; stroke-dasharray: none; stroke-linecap: butt; stroke-dashoffset: 0; stroke-linejoin: miter; stroke-miterlimit: 4; fill: rgb(38,38,38); fill-rule: nonzero; opacity: 1;"  transform=" translate(-55.811499999999995, -50.176)" d="M 55.811 39.377 c -0.373 0 -0.676 0.303 -0.676 0.676 v 20.246 c 0 0.373 0.303 0.676 0.676 0.676 c 0.374 0 0.677 -0.303 0.677 -0.676 V 40.053 C 56.487 39.68 56.185 39.377 55.811 39.377 z" stroke-linecap="round" />
</g>
		<g transform="matrix(1 0 0 1 9.1795 0.6759999999999984)"  >
<path style="stroke: none; stroke-width: 1; stroke-dasharray: none; stroke-linecap: butt; stroke-dashoffset: 0; stroke-linejoin: miter; stroke-miterlimit: 4; fill: rgb(38,38,38); fill-rule: nonzero; opacity: 1;"  transform=" translate(-58.679500000000004, -50.176)" d="M 58.679 39.377 c -0.373 0 -0.676 0.303 -0.676 0.676 v 20.246 c 0 0.373 0.303 0.676 0.676 0.676 c 0.374 0 0.677 -0.303 0.677 -0.676 V 40.053 C 59.355 39.68 59.053 39.377 58.679 39.377 z" stroke-linecap="round" />
</g>
		<g transform="matrix(1 0 0 1 12.046999999999997 0.6759999999999984)"  >
<path style="stroke: none; stroke-width: 1; stroke-dasharray: none; stroke-linecap: butt; stroke-dashoffset: 0; stroke-linejoin: miter; stroke-miterlimit: 4; fill: rgb(38,38,38); fill-rule: nonzero; opacity: 1;"  transform=" translate(-61.547, -50.176)" d="M 61.547 39.377 c -0.374 0 -0.676 0.303 -0.676 0.676 v 20.246 c 0 0.373 0.302 0.676 0.676 0.676 s 0.676 -0.303 0.676 -0.676 V 40.053 C 62.223 39.68 61.921 39.377 61.547 39.377 z" stroke-linecap="round" />
</g>
		<g transform="matrix(1 0 0 1 14.9145 0.6759999999999984)"  >
<path style="stroke: none; stroke-width: 1; stroke-dasharray: none; stroke-linecap: butt; stroke-dashoffset: 0; stroke-linejoin: miter; stroke-miterlimit: 4; fill: rgb(38,38,38); fill-rule: nonzero; opacity: 1;"  transform=" translate(-64.4145, -50.176)" d="M 64.415 39.377 c -0.374 0 -0.677 0.303 -0.677 0.676 v 20.246 c 0 0.373 0.303 0.676 0.677 0.676 c 0.373 0 0.676 -0.303 0.676 -0.676 V 40.053 C 65.091 39.68 64.788 39.377 64.415 39.377 z" stroke-linecap="round" />
</g>
		<g transform="matrix(1 0 0 1 17.7825 0.6759999999999984)"  >
<path style="stroke: none; stroke-width: 1; stroke-dasharray: none; stroke-linecap: butt; stroke-dashoffset: 0; stroke-linejoin: miter; stroke-miterlimit: 4; fill: rgb(38,38,38); fill-rule: nonzero; opacity: 1;"  transform=" translate(-67.2825, -50.176)" d="M 67.283 39.377 c -0.374 0 -0.677 0.303 -0.677 0.676 v 20.246 c 0 0.373 0.303 0.676 0.677 0.676 c 0.373 0 0.676 -0.303 0.676 -0.676 V 40.053 C 67.959 39.68 67.656 39.377 67.283 39.377 z" stroke-linecap="round" />
</g>
</g>
</g>
</svg>